<svg width="48" height="48" viewBox="0 0 48 48" fill="none"
     xmlns="http://www.w3.org/2000/svg">
  <defs>
    <radialGradient id="g1" cx="50%" cy="35%" r="60%">
      <stop offset="0%" stop-color="#FFE9B0"/>
      <stop offset="60%" stop-color="#FFD466"/>
      <stop offset="100%" stop-color="#E9B84D"/>
    </radialGradient>
    <linearGradient id="g2" x1="0" y1="0" x2="48" y2="48">
      <stop offset="0%" stop-color="rgba(102,224,255,0.95)"/>
      <stop offset="100%" stop-color="rgba(255,255,255,0.0)"/>
    </linearGradient>
  </defs>
  <g filter="url(#f0)">
    <path d="M24 6c7 0 14 7 14 14 0 12-10 22-14 22S10 32 10 20C10 13 17 6 24 6Z"
          fill="url(#g1)"/>
    <path d="M24 10c5.5 0 10 4.5 10 10 0 8.5-7.5 16-10 16S14 28.5 14 20c0-5.5 4.5-10 10-10Z"
          fill="url(#g2)" opacity=".25"/>
    <path d="M24 13c-2.8 0-6.5 4.2-6.5 7s3.7 7 6.5 7 6.5-4.2 6.5-7-3.7-7-6.5-7Z"
          fill="white" opacity=".18"/>
  </g>
  <filter id="f0" x="0" y="0" width="48" height="48" filterUnits="userSpaceOnUse">
    <feGaussianBlur in="SourceAlpha" stdDeviation="0.6" result="blur"/>
    <feOffset dy="0"/>
    <feMerge>
      <feMergeNode in="blur"/>
      <feMergeNode in="SourceGraphic"/>
    </feMerge>
  </filter>
</svg>
