<svg width="36" height="36" viewBox="0 0 36 36" fill="none" xmlns="http://www.w3.org/2000/svg">
  <defs>
    <radialGradient id="g" cx="50%" cy="40%" r="70%">
      <stop offset="0%" stop-color="#66E0FF"/>
      <stop offset="60%" stop-color="#45B9FF"/>
      <stop offset="100%" stop-color="#1E6CFF"/>
    </radialGradient>
  </defs>
  <!-- outer ring -->
  <circle cx="18" cy="18" r="16" stroke="url(#g)" stroke-width="2" opacity="0.9"/>
  <!-- stylized shell -->
  <path d="M18 8c3.6 0 6.5 2.9 6.5 6.5 0 1.8-.7 3.5-2 4.8l-3 3a2.2 2.2 0 0 1-3 0l-3-3a6.8 6.8 0 0 1-2-4.8C11.5 10.9 14.4 8 18 8z" fill="url(#g)" opacity=".95"/>
  <path d="M18 12c1.8 0 3.4 1.5 3.4 3.4 0 .9-.3 1.7-.9 2.3l-1.8 1.8a.95.95 0 0 1-1.3 0l-1.8-1.8a3.3 3.3 0 0 1-.9-2.3c0-1.9 1.6-3.4 3.3-3.4z" fill="#0A1F44" opacity=".55"/>
</svg>
